<svg width="140" height="104" viewBox="0 0 140 104" fill="none" xmlns="http://www.w3.org/2000/svg">
<path d="M2.63867 89.752H19.9312" stroke="#031001" stroke-width="0.75" stroke-linecap="round" stroke-linejoin="round"/>
<path d="M1 92.3859H24.3196" stroke="#031001" stroke-width="0.75" stroke-linecap="round" stroke-linejoin="round"/>
<path d="M109.337 92.3859H138.674" stroke="#031001" stroke-width="0.75" stroke-linecap="round" stroke-linejoin="round"/>
<path d="M68.0915 41.1425C68.0915 41.1425 80.0418 45.3363 81.9501 47.6263C83.8584 49.9163 95.034 72.9574 95.034 72.9574L85.5399 74.888C84.6283 75.0754 83.9245 75.6641 83.7214 76.4058L83.1498 78.5505L77.3164 69.62C77.1983 70.6407 76.9952 71.5888 76.6504 72.4299V73.3856C76.6504 73.3856 76.3056 81.4062 76.8771 89.7518H56.5521C56.5521 89.7518 56.4813 89.3351 56.0089 88.9528C55.5366 88.5705 49.2355 87.1025 48.7962 87.1025C48.357 87.1025 45.0458 87.9932 43.2368 90.9217C41.508 93.7201 42.2732 96.4879 42.2732 96.4879C39.1037 96.4879 21.7923 92.6 20.5926 90.9102C19.3928 89.2204 17.8719 84.4876 18.2167 80.7907C18.5615 77.0939 23.7809 51.6901 27.3093 48.8343C30.8377 45.9786 46.6046 40.1409 46.6046 40.1409C46.6046 40.1409 58.6493 42.4155 61.7243 42.1288C64.7993 41.8421 68.101 41.1425 68.101 41.1425H68.0915Z" fill="#AB29CC"/>
<path d="M61.1201 45.0955C61.1201 45.0955 62.471 60.1733 62.471 68.3125C62.471 76.4516 61.4082 89.7709 61.4082 89.7709" stroke="#0B5243" stroke-width="0.75" stroke-linecap="round" stroke-linejoin="round"/>
<path d="M50.4023 36.1C51.2998 31.2525 51.1581 29.1192 50.8983 25.8888L52.235 25.2274C52.235 25.2274 52.3909 28.6375 53.2506 31.0154C54.1102 33.3971 61.408 36.6926 62.5133 37.0443C64.0248 37.5222 65.0781 37.4036 65.0781 37.4036C65.0781 37.4036 65.2056 38.0039 65.2056 38.7264C65.2056 40.6494 61.715 42.1289 61.715 42.1289C61.715 42.1289 58.7487 41.1502 55.0786 39.3266C51.4084 37.503 50.4023 36.1 50.4023 36.1Z" fill="#FFC5A9"/>
<path d="M76.4716 92.2368L84.7282 90.6388L115.034 92.1106C115.993 92.1565 116.163 93.2423 115.246 93.4831L76.448 103.599L46.4825 99.0991C45.7787 98.992 45.755 98.1854 46.4494 98.0516" fill="#0B5243"/>
<path d="M51.4131 20.808C51.4131 20.808 51.8618 30.0749 52.5042 31.5697C53.1466 33.0683 60.8553 37.1513 62.4943 37.6521C64.1333 38.1529 66.9296 37.9503 68.2711 37.6521C69.6125 37.3539 72.064 33.3971 72.9048 31.1759C73.7408 28.9548 74.6335 27.2726 74.8319 25.8696C75.0256 24.4666 74.5485 23.033 74.5485 22.6698C74.5485 22.3066 75.2523 20.9074 75.2523 19.9287C75.2523 18.3001 74.4115 13.2576 74.4115 13.2576C74.4115 13.2576 74.3832 12.6994 74.232 12.2215C72.1962 12.2215 71.8373 13.5481 70.7698 13.6284C69.7023 13.7087 59.476 8.80761 56.6278 10.8453C55.3902 11.8469 56.6278 16.6524 56.6278 16.6524L51.4178 17.0041V20.8041L51.4131 20.808Z" fill="#FFDDC5"/>
<path d="M66.9207 19.5962C66.6704 19.3936 66.3208 19.0495 64.918 18.7054C63.5151 18.3614 61.98 18.1779 60.7991 18.3614C59.6183 18.5449 57.4644 19.4548 57.8706 19.6191C58.2485 19.7721 58.9003 19.1604 60.8133 18.931C62.3295 18.7475 63.1703 18.9998 64.5165 19.4356C65.9524 19.8944 66.472 20.8349 66.9443 20.6934C67.4167 20.552 67.171 19.8026 66.9207 19.6V19.5962Z" fill="#031001"/>
<path d="M70.6047 19.9593C71.044 19.2177 73.4907 18.9998 74.3457 18.9998C75.2006 18.9998 75.2431 19.6267 75.2431 19.6267L75.2526 19.9326C75.2526 19.9326 75.0872 19.512 74.2181 19.512C71.3557 19.642 71.1195 20.8768 70.6094 20.8195C70.4488 20.8004 70.274 20.4104 70.6094 19.9631L70.6047 19.9593Z" fill="#031001"/>
<path d="M65.6025 21.7954C65.3853 21.8374 65.3947 20.9615 64.091 20.5024C62.7874 20.0434 60.4634 20.4871 60.3831 20.3685C60.3501 20.315 62.8488 19.7833 64.4122 20.4565C65.6545 20.9921 65.7206 21.7686 65.6025 21.7915V21.7954Z" fill="black"/>
<path d="M70.543 22.2159C70.7036 22.2541 70.6989 21.4623 71.6624 21.0492C72.6685 20.6169 74.3454 21.0377 74.402 20.9267C74.4257 20.8808 72.5788 20.395 71.4263 21.0071C70.5099 21.4929 70.458 22.1929 70.5477 22.2159H70.543Z" fill="black"/>
<path d="M50.2649 35.8553C50.2649 36.9028 55.5646 39.9995 61.7145 42.1289C61.7145 42.1289 60.9541 42.0945 59.8488 42.989C58.7435 43.8836 58.1294 46.7394 57.2273 46.7394C56.3251 46.7394 47.4686 41.7733 46.5098 40.0071C47.5914 38.9214 49.6083 34.9646 50.2649 35.8553Z" fill="#0B5243"/>
<path d="M65.0072 37.6368C65.8527 39.7624 63.9539 41.0011 61.7197 42.125C61.7197 42.125 63.0234 41.995 63.7933 42.6182C64.5632 43.2413 65.9803 46.0283 66.5471 46.0283C67.1139 46.0283 67.5059 42.8399 68.1672 40.917C67.8744 39.9344 65.2245 37.438 65.0072 37.6368Z" fill="#0B5243"/>
<path d="M31.0312 50.8414C35.9578 51.9157 39.6846 55.8878 42.4242 62.2607C43.0288 65.6976 36.4254 75.7559 36.4254 81.1922" stroke="#0B5243" stroke-width="0.75" stroke-linecap="round" stroke-linejoin="round"/>
<path d="M26.3887 83.937C27.2342 82.4002 32.8078 79.8694 35.9536 81.0927C39.0995 82.3161 44.7251 84.4111 45.8823 85.0075C47.0396 85.6039 48.1968 87.1025 48.1968 87.1025" stroke="#0B5243" stroke-width="0.75" stroke-linecap="round" stroke-linejoin="round"/>
<path d="M80.3259 97.3406C80.3259 97.3406 81.365 97.4285 81.1761 97.0156C80.9871 96.6028 79.896 94.1866 78.9088 93.5444C77.9169 92.9059 74.1901 90.9333 72.4472 90.9333C70.7042 90.9333 63.1325 91.9578 63.1325 91.9578L56.3922 89.752C56.3922 89.752 53.5203 90.1916 51.612 92.5045C49.699 94.8174 50.6012 96.7557 50.6012 96.7557C50.6012 96.7557 58.5555 97.1647 59.4955 97.7305C60.4354 98.2963 61.4982 99.4471 62.9672 99.7223C64.4362 99.9976 70.52 98.9807 71.3135 99.1947C72.1071 99.4088 75.2907 101.263 76.1929 101.263C77.095 101.263 77.3406 100.881 76.9061 100.533C76.4715 100.185 74.9317 99.2024 74.4735 98.7971C74.0153 98.3919 72.4283 97.3865 71.5969 97.1647C70.7656 96.943 69.358 96.8856 69.358 96.8856C70.1799 96.9162 70.9451 96.9889 71.5969 97.1647C71.5969 97.1647 73.5383 97.8835 74.2893 98.2963C75.045 98.7092 77.4209 99.9288 77.9547 100.261C78.4884 100.594 80.203 100.368 79.4709 99.5694C78.6254 98.6519 77.8508 97.9714 77.4446 97.5891C76.9439 97.115 75.9756 96.4154 75.3993 95.9528C74.823 95.4864 70.7089 94.4045 70.7089 94.4045C72.2582 94.8212 73.5855 95.215 74.6199 95.5858C74.6199 95.5858 79.1356 98.9004 80.1086 99.405C81.0816 99.9135 81.4784 99.1106 80.9966 98.369C80.5573 97.6923 79.7968 96.4804 79.008 95.4826C78.2192 94.4848 77.1139 94.1675 76.4337 93.7737C75.7536 93.38 72.1874 92.3363 72.1874 92.3363C73.6044 92.7645 75.2576 93.2844 76.4337 93.7737C77.2415 94.1102 78.5546 94.7907 79.008 95.4826C79.5276 96.2816 79.8157 96.1937 80.3306 97.3406H80.3259Z" fill="#FFDDC5"/>
<path d="M81.1994 51.7437C80.165 58.6403 77.7041 63.1056 77.7041 63.1056" stroke="#0B5243" stroke-width="0.75" stroke-linecap="round" stroke-linejoin="round"/>
<path d="M64.4121 59.6229C64.4121 59.1144 77.8267 58.6595 77.8267 59.3858C77.8267 60.1122 77.5244 69.3753 77.1088 71.0842C76.6931 72.7931 75.2761 74.7543 74.6148 74.9454C73.9535 75.1366 68.1862 75.3774 67.5202 74.9454C66.8542 74.5134 63.8548 72.7931 64.1335 70.8586C64.6861 65.6517 64.4121 60.1313 64.4121 59.619V59.6229Z" fill="#0B5243"/>
<path d="M62.0933 45.3478C62.8994 45.3478 63.5529 44.8189 63.5529 44.1665C63.5529 43.5141 62.8994 42.9852 62.0933 42.9852C61.2873 42.9852 60.6338 43.5141 60.6338 44.1665C60.6338 44.8189 61.2873 45.3478 62.0933 45.3478Z" fill="#0B5243" stroke="#0B5243" stroke-width="0.75" stroke-linecap="round" stroke-linejoin="round"/>
<path d="M64.4648 61.6108L72.4852 63.1065L77.7094 61.6108" stroke="#81B89E" stroke-linecap="round" stroke-linejoin="round"/>
<path d="M56.5479 89.8403H80.1509" stroke="#031001" stroke-width="0.75" stroke-linecap="round" stroke-linejoin="round"/>
<path d="M59.6982 21.1063C59.6982 21.1063 62.0269 20.6093 63.3778 20.896C64.7287 21.1827 65.2577 22.2187 65.2577 22.2187C65.2577 22.2187 64.2375 22.8037 62.863 22.6125C61.4884 22.4252 60.7846 21.9014 60.3879 21.5765C59.9911 21.2515 59.6982 21.1024 59.6982 21.1024V21.1063Z" fill="white"/>
<path d="M65.5173 22.4863C65.6684 22.3104 65.0072 21.2132 64.1805 20.8806C63.4342 20.5786 61.9038 20.6283 61.1056 20.6971C60.3073 20.7659 58.6777 21.045 58.6777 21.1635C58.6777 21.2821 60.0381 21.0794 61.1906 21.0259C62.3431 20.9724 63.3209 21.0259 64.053 21.3279C64.7851 21.6299 65.3378 22.6927 65.5173 22.4863Z" fill="black"/>
<path d="M64.2423 21.5191C64.2423 21.7523 64.2423 22.0696 63.992 22.3258C63.803 22.5169 63.4393 22.6507 62.9953 22.6354C62.5182 22.6201 62.0695 22.3908 61.9373 22.1461C61.753 21.7982 61.8853 21.1024 62.4002 20.9074C62.9008 20.7163 64.2423 20.9686 64.2423 21.5191Z" fill="black"/>
<path d="M65.2999 22.2194C65.2102 22.0511 64.5111 22.6057 62.9429 22.5139C61.3748 22.4221 59.8066 21.0374 59.6554 21.1062C59.5893 21.133 61.0866 22.6402 62.9618 22.7281C64.837 22.8161 65.3614 22.3303 65.3047 22.2194H65.2999Z" fill="black"/>
<path d="M72.1678 21.2821C71.4451 21.4581 70.8877 22.4259 70.8877 22.4259C70.8877 22.4259 71.9552 23.0953 73.1266 22.7204C74.298 22.3456 74.6901 21.3166 74.6901 21.3166C74.6901 21.3166 73.3392 20.9991 72.1678 21.2821Z" fill="white"/>
<path d="M70.609 22.6966C70.4956 22.5361 71.0766 21.4733 71.7379 21.2439C72.6448 20.9266 73.2777 21.0145 73.8681 21.0795C74.4586 21.1445 75.0632 21.2401 74.9687 21.3165C74.8364 21.4236 74.657 21.4274 73.802 21.3777C72.9471 21.328 72.4842 21.2898 71.9315 21.5497C71.2419 21.8709 70.7365 22.884 70.6042 22.7005L70.609 22.6966Z" fill="black"/>
<path d="M71.5496 21.8215C71.5496 22.0319 71.5496 22.3188 71.7339 22.5521C71.8708 22.7243 72.1401 22.8467 72.4707 22.8314C72.8203 22.8161 73.1556 22.6133 73.2501 22.3876C73.3871 22.074 73.2879 21.4428 72.91 21.2668C72.5321 21.0909 71.5449 21.3204 71.5449 21.8215H71.5496Z" fill="black"/>
<path d="M70.7697 22.4525C70.8358 22.2995 71.3507 22.7815 72.5127 22.7203C74.0053 22.6361 74.539 21.2552 74.6524 21.3164C74.6996 21.3432 74.4021 22.8312 72.4985 22.9154C71.1098 22.9728 70.7272 22.5558 70.7697 22.4564V22.4525Z" fill="black"/>
<path d="M63.5946 30.8014C63.5946 30.8014 65.3186 32.5227 68.2047 32.408C70.9348 32.3009 71.0245 31.1533 71.0245 31.1533C69.9145 31.0194 69.291 31.4632 68.6156 31.4632C67.9401 31.4632 67.0332 31.0194 63.5898 30.8052L63.5946 30.8014Z" fill="#E8A381"/>
<path d="M64.0106 30.7748C64.0106 30.7748 66.5612 30.4114 67.4304 30.4611C67.8649 30.5146 68.4648 30.878 68.6159 30.878C68.7671 30.878 69.1214 30.5108 69.6976 30.4611C70.2739 30.4114 71.0249 31.0731 71.0249 31.0731L68.6868 31.4557L64.0059 30.7709L64.0106 30.7748Z" fill="#E8A381"/>
<path d="M62.4805 30.5758C62.4805 30.5758 65.6405 30.9851 66.7741 31.1458C67.9077 31.3064 68.125 31.4633 68.6209 31.4633C69.1169 31.4633 69.3153 31.3064 69.9907 31.1917C70.6662 31.0769 71.285 31.0769 71.285 31.0769" stroke="black" stroke-width="0.5" stroke-linecap="round" stroke-linejoin="round"/>
<path d="M67.7325 1.09672C60.7229 -0.982988 53.9069 0.144794 50.3927 2.39654C47.006 4.56799 47.7334 8.13867 47.7334 8.13867C47.7334 8.13867 46.1558 8.18454 45.0977 10.2528C43.2886 13.789 45.9574 19.9441 45.9574 19.9441L51.087 28.8134L50.78 23.9429L51.413 25.0975C51.413 25.0975 51.9562 30.2241 52.2301 31.3442C52.5891 32.839 60.8315 37.4266 62.4989 37.7554C64.1663 38.088 67.5671 38.1186 68.6724 37.5489C70.165 36.7805 71.9599 33.8062 72.6448 32.3497C73.7785 29.945 74.2272 27.915 74.2272 27.915C73.7926 28.7293 73.3297 29.471 72.7818 29.9603C72.7818 29.9603 72.7913 29.2263 71.9127 28.8555C71.2184 28.5611 69.7305 28.4158 68.2284 28.3432C64.4213 28.1635 61.8896 28.3088 61.0866 28.9587C60.4347 29.4863 60.2222 30.1209 60.2222 30.1209C60.2222 30.1209 54.5399 30.5987 53.992 27.288C53.444 23.9773 53.3212 18.9845 53.8077 17.6617C54.2943 16.3352 56.5521 17.4477 56.9252 16.8092C57.2984 16.1708 55.5838 11.7629 57.1945 10.9486C60.3639 9.73285 69.1259 13.7929 70.4343 13.8961C71.7379 13.9993 72.0875 12.7071 74.1327 12.7071L75.2475 18.7781L76.6787 13.2615C77.2124 13.422 77.7839 13.6935 78.1854 13.7852C78.9034 13.9534 79.3616 13.2844 79.2529 11.8393C79.116 10.0196 76.0835 3.57402 67.7325 1.09672ZM62.1871 29.8303C62.8673 29.4939 65.4085 28.8746 68.2095 29.0351C70.5193 29.1651 71.6718 29.8647 71.8135 30.3273C71.9552 30.7899 71.8135 31.5315 71.7001 31.9444C71.5868 32.3573 70.7129 34.2879 69.5746 34.6091C68.4362 34.9302 65.281 34.999 63.9443 34.6091C62.6075 34.2191 61.6723 32.5867 61.6723 31.9444C61.6723 31.3022 61.7195 30.0635 62.1871 29.8341V29.8303Z" fill="#031001"/>
<path d="M51.1255 18.8239C51.1255 18.8239 50.0438 17.1112 48.4662 17.1112C46.8885 17.1112 45.958 18.7054 45.958 20.2537C45.958 21.4809 46.5957 22.3334 47.4317 23.6294C48.2678 24.9254 48.4945 25.6135 49.34 26.0111C50.1902 26.4125 51.4655 25.6059 51.4655 25.6059L51.1255 18.8239Z" fill="#FFC5A9"/>
<path d="M50.5058 23.5797C50.5058 23.5797 49.6083 23.2433 49.6083 22.5169C49.6083 21.7906 50.5058 21.4618 50.5058 21.4618C50.5058 21.4618 50.5058 20.1238 49.9342 19.1909C49.3627 18.2581 48.7723 17.8414 48.2669 17.8414C47.7615 17.8414 47.001 18.4799 47.001 19.4968" stroke="black" stroke-width="0.75" stroke-linecap="round" stroke-linejoin="round"/>
<path d="M48.7588 21.8715C48.7588 21.8715 49.1225 20.8693 50.4451 20.7048" stroke="black" stroke-width="0.75" stroke-linecap="round" stroke-linejoin="round"/>
<path d="M70.6713 20.1697C70.3123 20.7049 70.3312 22.1118 70.5674 23.3198C70.8036 24.5279 71.9372 28.5535 70.2982 28.8211C68.7536 29.0696 68.371 28.3968 67.5727 28.3509C66.7745 28.305 66.8453 28.5267 66.3824 28.2935C66.0565 28.1291 65.9526 27.5825 66.2407 27.074C66.5289 26.5655 67.0579 26.2521 67.4688 26.1068" fill="#FFE1C3"/>
<path d="M70.6713 20.1697C70.3123 20.7049 70.3312 22.1118 70.5674 23.3198C70.8036 24.5279 71.9372 28.5535 70.2982 28.8211C68.7536 29.0696 68.371 28.3968 67.5727 28.3509C66.7745 28.305 66.8453 28.5267 66.3824 28.2935C66.0565 28.1291 65.9526 27.5825 66.2407 27.074C66.5289 26.5655 67.0579 26.2521 67.4688 26.1068" stroke="black" stroke-width="0.75" stroke-linecap="round" stroke-linejoin="round"/>
<path d="M72.083 92.3362C72.083 92.3362 75.6492 93.376 76.3294 93.7736C77.0096 94.1712 78.4974 95.0696 78.9037 95.4825C79.3099 95.8954 80.453 97.6922 80.8922 98.3689C81.374 99.1105 80.9773 99.9095 80.0042 99.4049" stroke="#EDB095" stroke-width="0.75" stroke-linecap="round" stroke-linejoin="round"/>
<path d="M70.6045 94.4044C70.6045 94.4044 74.7186 95.4863 75.2949 95.9527C75.8711 96.4191 76.8394 97.1149 77.3401 97.589C77.7463 97.9751 78.5257 98.6518 79.3665 99.5693" stroke="#EDB095" stroke-width="0.75" stroke-linecap="round" stroke-linejoin="round"/>
<path d="M83.6935 76.5128L76.528 103.297C76.4903 103.43 76.6509 103.545 76.8115 103.503L118.099 92.7376C119.067 92.4852 119.818 91.8621 120.102 91.0707L128.604 67.609C128.859 66.9056 128.07 66.2404 127.192 66.4201L85.6726 74.8613C84.6807 75.0639 83.9155 75.7023 83.6982 76.5128H83.6935Z" fill="#0B5243"/>
<path d="M48.7921 87.1025C48.1969 87.1025 44.5646 88.3106 43.0437 91.0708C41.2913 94.2554 41.9667 96.098 42.3777 96.725C42.7886 97.352 50.5917 98.7588 51.5553 98.625C52.5189 98.4912 53.4258 96.9467 53.4258 96.9467C53.4258 96.9467 51.7631 98.0095 51.1208 97.4896C50.4784 96.9697 49.7887 95.3526 51.3617 92.8638C52.9393 90.3788 56.548 89.7213 56.548 89.7213C56.548 89.7213 56.5716 89.3849 56.1134 89.014C55.4899 88.5094 49.392 87.1025 48.7921 87.1025Z" fill="#C9EBDF"/>
<path d="M56.5473 89.7174C56.5473 89.7174 52.7402 90.2947 51.172 93.1772C49.6038 96.0559 50.5768 97.4169 51.4129 97.6157C52.2489 97.8145 53.4251 96.9467 53.4251 96.9467L50.7516 96.725C50.7516 96.725 50.2887 95.5628 51.4696 93.2078C52.6457 90.8528 56.5473 89.8053 56.5473 89.8053V89.7212V89.7174Z" fill="#0B5243"/>
<path d="M42.3773 96.725C42.3773 96.725 41.2248 93.0664 43.3929 90.5126C45.5609 87.9589 48.0219 86.9802 48.7918 87.1025C49.5617 87.221 55.3196 88.2456 56.0045 88.7999C56.6941 89.3581 56.5477 89.7213 56.5477 89.7213" stroke="#0B5243" stroke-width="0.75" stroke-linecap="round" stroke-linejoin="round"/>
<path d="M108.678 84.4064C109.637 82.861 109.406 81.1989 108.164 80.694C106.921 80.189 105.137 81.0324 104.178 82.5778C103.22 84.1232 103.45 85.7853 104.692 86.2903C105.935 86.7952 107.719 85.9518 108.678 84.4064Z" fill="#FBD300"/>
<path d="M120.503 89.8403H133.733" stroke="#031001" stroke-width="0.75" stroke-linecap="round" stroke-linejoin="round"/>
</svg>
